Coordinates
version=1
nRows=27
nColumns=38
inDegrees=no

Units are S.I. units (second, meters, Newtons, ...)
If the header above contains a line with 'inDegrees', this indicates whether rotational values are in degrees (yes) or radians (no).

endheader
time	pelvis_tilt	pelvis_list	pelvis_rotation	pelvis_tx	pelvis_ty	pelvis_tz	hip_flexion_r	hip_adduction_r	hip_rotation_r	knee_angle_r	ankle_angle_r	subtalar_angle_r	mtp_angle_r	hip_flexion_l	hip_adduction_l	hip_rotation_l	knee_angle_l	ankle_angle_l	subtalar_angle_l	mtp_angle_l	lumbar_extension	lumbar_bending	lumbar_rotation	arm_flex_r	arm_add_r	arm_rot_r	elbow_flex_r	pro_sup_r	wrist_flex_r	wrist_dev_r	arm_flex_l	arm_add_l	arm_rot_l	elbow_flex_l	pro_sup_l	wrist_flex_l	wrist_dev_l
90	-2.69177	1.3799	1.24653	0.685323	1.85976	0.911342	0.0647031	0.0172152	-0.0905844	0.129451	-0.277096	0	0	0.0422424	-0.131827	-0.269907	0.029811	-0.329875	0	0	0.302272	0.0353722	-0.0761906	-0.0751464	-0.609386	1.01372	1.11616	0.871242	0	0	0.0734327	-0.216652	0.709792	0.468093	1.5708	0	0
90.01	-2.695	1.37885	1.24833	0.685237	1.85979	0.911284	0.0667383	0.0169196	-0.0894157	0.130763	-0.276198	0	0	0.0421294	-0.131282	-0.271259	0.0269237	-0.331602	0	0	0.303708	0.035405	-0.0760108	-0.0730896	-0.609221	1.01584	1.11342	0.873258	0	0	0.0727953	-0.216375	0.710998	0.467582	1.5708	0	0
90.02	-2.8225	1.39153	1.38171	0.68939	1.85984	0.910348	0.0433914	-0.0151136	-0.0484292	0.0974215	-0.269634	0	0	0.034515	-0.09396	-0.272578	0.0217405	-0.335756	0	0	0.296826	0.0108942	-0.0764877	-0.0735375	-0.617203	1.01344	1.12275	0.878074	0	0	0.0714477	-0.216748	0.711948	0.474944	1.5708	0	0
90.03	-2.68312	1.38452	1.2362	0.685301	1.8602	0.911761	0.059058	0.0174243	-0.0845683	0.126895	-0.277311	0	0	0.035046	-0.131247	-0.270055	0.0245865	-0.335012	0	0	0.294419	0.035983	-0.0781108	-0.0662114	-0.609167	1.01868	1.10905	0.884927	0	0	0.0733537	-0.216756	0.710711	0.468834	1.5708	0	0
90.04	-2.68051	1.38467	1.23328	0.685269	1.86044	0.911722	0.0598985	0.0177821	-0.0838814	0.129091	-0.276523	0	0	0.0366134	-0.132133	-0.269943	0.0285924	-0.33274	0	0	0.293117	0.0363797	-0.0792117	-0.0631273	-0.609482	1.02046	1.10739	0.891649	0	0	0.0730317	-0.217115	0.710171	0.469575	1.5708	0	0
90.05	-2.67613	1.38427	1.22798	0.68515	1.86068	0.911726	0.0610512	0.0187942	-0.0843419	0.130418	-0.276209	0	0	0.0377395	-0.133558	-0.27089	0.0308248	-0.33097	0	0	0.292461	0.0377667	-0.0795447	-0.0603913	-0.610071	1.02207	1.10597	0.898987	0	0	0.0734841	-0.215198	0.709737	0.467638	1.5708	0	0
90.06	-2.6731	1.38322	1.2234	0.684971	1.86092	0.911748	0.0635203	0.0197246	-0.0867346	0.132728	-0.276435	0	0	0.0385474	-0.134859	-0.272894	0.0307981	-0.330251	0	0	0.292703	0.0393234	-0.079197	-0.0579068	-0.610477	1.02366	1.10413	0.908449	0	0	0.0733745	-0.213638	0.70828	0.466443	1.5708	0	0
90.07	-2.66961	1.38368	1.2186	0.684919	1.86099	0.91185	0.0634151	0.0201459	-0.0875965	0.133593	-0.276878	0	0	0.0377924	-0.135453	-0.274478	0.0311457	-0.329899	0	0	0.291505	0.0403171	-0.0790605	-0.0554323	-0.610997	1.02503	1.10245	0.917608	0	0	0.0726189	-0.213429	0.706558	0.467445	1.5708	0	0
90.08	-2.66534	1.38382	1.21397	0.684868	1.86118	0.911907	0.0632618	0.0209848	-0.0868362	0.133632	-0.277561	0	0	0.0368259	-0.136066	-0.274622	0.0291965	-0.330446	0	0	0.290165	0.0411592	-0.0800998	-0.0523042	-0.611118	1.02639	1.1003	0.926601	0	0	0.0719074	-0.213738	0.704335	0.469049	1.5708	0	0
90.09	-2.66286	1.38445	1.21084	0.684852	1.86139	0.912051	0.0628605	0.0211662	-0.085764	0.133724	-0.278142	0	0	0.0356319	-0.136074	-0.274915	0.0277625	-0.331388	0	0	0.288409	0.0417995	-0.0805493	-0.0492578	-0.611052	1.02669	1.09769	0.934399	0	0	0.0722511	-0.21218	0.702647	0.467822	1.5708	0	0
90.1	-2.65917	1.38379	1.2071	0.684676	1.8618	0.912018	0.0641133	0.0223627	-0.0849872	0.134235	-0.278603	0	0	0.0368995	-0.137378	-0.272806	0.0284437	-0.331444	0	0	0.287546	0.0426441	-0.0815468	-0.0462229	-0.610685	1.02558	1.09507	0.940077	0	0	0.072678	-0.211701	0.701381	0.467677	1.5708	0	0
90.11	-2.6592	1.38306	1.20615	0.68444	1.86205	0.911919	0.0654151	0.0230676	-0.0842149	0.134354	-0.278829	0	0	0.0379033	-0.138127	-0.27239	0.0290455	-0.330951	0	0	0.287507	0.042985	-0.0815784	-0.0434036	-0.610133	1.02422	1.09213	0.951215	0	0	0.0720626	-0.212129	0.699521	0.469135	1.5708	0	0
90.12	-2.66157	1.38302	1.20767	0.684276	1.86218	0.911806	0.0654661	0.0231032	-0.0819843	0.133384	-0.2783	0	0	0.0381301	-0.137967	-0.272905	0.0292545	-0.330501	0	0	0.287271	0.0425577	-0.0813904	-0.0409502	-0.609906	1.02156	1.08918	0.964292	0	0	0.071231	-0.212722	0.697517	0.471416	1.5708	0	0
90.13	-2.66229	1.3838	1.20755	0.68422	1.86226	0.911813	0.0644177	0.022871	-0.080371	0.132347	-0.278348	0	0	0.0370127	-0.137433	-0.273941	0.0284107	-0.330532	0	0	0.286151	0.0422998	-0.0810573	-0.0387153	-0.609582	1.01678	1.0853	0.979494	0	0	0.0706728	-0.212734	0.6953	0.473071	1.5708	0	0
90.14	-2.65908	1.3855	1.20347	0.684255	1.86239	0.911993	0.0623854	0.0227335	-0.0797213	0.131586	-0.278937	0	0	0.0341338	-0.137037	-0.274488	0.0263837	-0.331222	0	0	0.283562	0.0425108	-0.0803441	-0.0367949	-0.608237	1.00864	1.07942	0.999373	0	0	0.0707332	-0.212388	0.692804	0.473627	1.5708	0	0
90.15	-2.65545	1.38718	1.19968	0.684337	1.86278	0.912218	0.0609193	0.0225179	-0.0790618	0.131573	-0.279234	0	0	0.0318791	-0.136643	-0.273031	0.0246293	-0.332085	0	0	0.280248	0.0423647	-0.0802316	-0.0341463	-0.605617	0.998709	1.07144	1.01994	0	0	0.0714044	-0.212588	0.689764	0.474819	1.5708	0	0
90.16	-2.39614	1.45084	0.93011	0.68225	1.86174	0.918881	-0.0326134	0.0319266	-0.0790912	0.101936	-0.300172	0	0	-0.0177277	-0.152297	-0.341814	0.114103	-0.285474	0	0	0.186164	0.0476339	-0.0667619	-0.0229814	-0.597259	0.971939	1.06339	1.0768	0	0	0.0868454	-0.218352	0.685552	0.484251	1.5708	0	0
90.17	-2.62715	1.39949	1.17108	0.684612	1.86345	0.913353	0.045166	0.0222723	-0.0805612	0.126434	-0.284478	0	0	0.015645	-0.135534	-0.273497	0.0185302	-0.335697	0	0	0.261237	0.0431531	-0.0783459	-0.0353853	-0.596568	0.957518	1.05321	1.09817	0	0	0.0772427	-0.20852	0.68372	0.471652	1.5708	0	0
90.18	-2.63372	1.39772	1.17653	0.684471	1.86379	0.913157	0.0482731	0.022012	-0.078591	0.127269	-0.283519	0	0	0.0182797	-0.135284	-0.272795	0.0188788	-0.336129	0	0	0.263343	0.0429182	-0.0773895	-0.032391	-0.592457	0.947433	1.04222	1.09766	0	0	0.0774529	-0.207404	0.682486	0.47015	1.5708	0	0
90.19	-2.63988	1.39572	1.1814	0.684224	1.86418	0.912973	0.0518489	0.0219162	-0.0775132	0.128419	-0.282341	0	0	0.0208107	-0.135225	-0.272088	0.0185033	-0.336456	0	0	0.265408	0.0425485	-0.0759628	-0.0311652	-0.586381	0.932363	1.02885	1.09632	0	0	0.0773104	-0.207352	0.680607	0.469574	1.5708	0	0
90.2	-2.64198	1.39453	1.18229	0.684099	1.8645	0.91288	0.0543274	0.0218885	-0.0784162	0.129844	-0.281734	0	0	0.0222362	-0.135409	-0.271932	0.0183808	-0.336534	0	0	0.26632	0.0429055	-0.0747872	-0.0296033	-0.579991	0.917225	1.01463	1.09209	0	0	0.0772045	-0.207264	0.679659	0.468705	1.5708	0	0
90.21	-2.64154	1.39395	1.18078	0.684116	1.86479	0.912832	0.0557137	0.0219344	-0.0793768	0.130817	-0.281561	0	0	0.0232116	-0.135666	-0.272129	0.0191935	-0.33601	0	0	0.266435	0.0439291	-0.0737293	-0.0281614	-0.573433	0.900939	0.999577	1.08261	0	0	0.0778543	-0.205436	0.679721	0.465868	1.5708	0	0
90.22	-2.64233	1.3936	1.18068	0.68417	1.86509	0.912759	0.0568389	0.0216384	-0.0804596	0.131573	-0.281346	0	0	0.0240307	-0.135623	-0.27294	0.019914	-0.335252	0	0	0.266306	0.0444277	-0.0727884	-0.0263104	-0.565929	0.884488	0.982921	1.06602	0	0	0.0780548	-0.20493	0.6794	0.464869	1.5708	0	0
90.23	-2.64277	1.39306	1.18011	0.684183	1.86538	0.91267	0.0580443	0.0216087	-0.0812078	0.132027	-0.281237	0	0	0.0247875	-0.135738	-0.27359	0.0201202	-0.334687	0	0	0.266441	0.0453572	-0.0720059	-0.0231621	-0.557925	0.870507	0.964877	1.0465	0	0	0.0785678	-0.203208	0.67887	0.462462	1.5708	0	0
90.24	-2.64255	1.39276	1.179	0.684196	1.86568	0.912583	0.0589021	0.0216207	-0.0816574	0.132327	-0.281167	0	0	0.0252609	-0.135896	-0.274198	0.0202869	-0.334253	0	0	0.266005	0.0462538	-0.0719485	-0.018517	-0.54915	0.858425	0.945127	1.02478	0	0	0.0787853	-0.202889	0.678939	0.460921	1.5708	0	0
90.25	-2.64056	1.39384	1.17628	0.684219	1.86598	0.912659	0.0580224	0.0213667	-0.0821271	0.132185	-0.281436	0	0	0.0240353	-0.135872	-0.275203	0.0202632	-0.334163	0	0	0.263552	0.0469585	-0.072719	-0.0114095	-0.539835	0.849887	0.923723	0.995715	0	0	0.0830951	-0.213707	0.719857	0.469051	1.5708	0	0
90.26	-2.63869	1.39332	1.17396	0.684323	1.86629	0.912526	0.0588421	0.021633	-0.0824396	0.132266	-0.281436	0	0	0.0249273	-0.136344	-0.275535	0.0207408	-0.333571	0	0	0.263902	0.0482445	-0.0710616	-0.00825306	-0.530043	0.836761	0.901763	0.974193	0	0	0.0812099	-0.201266	0.686981	0.456023	1.5708	0	0
